<mxfile host="app.diagrams.net" modified="2023-03-04T16:34:26.520Z" agent="5.0 (Macintosh; Intel Mac OS X 10_15_7) AppleWebKit/537.36 (KHTML, like Gecko) Chrome/110.0.0.0 Safari/537.36" etag="01FIpSuv2MBC5qdTrXWp" version="21.0.2" type="github">
  <diagram name="Page-1" id="GqM_GtEpAZezMYEgQ5xa">
    <mxGraphModel dx="954" dy="616" grid="1" gridSize="10" guides="1" tooltips="1" connect="1" arrows="1" fold="1" page="1" pageScale="1" pageWidth="850" pageHeight="1100" math="0" shadow="0">
      <root>
        <mxCell id="0" />
        <mxCell id="1" parent="0" />
        <mxCell id="keDTnLgS_OwcRACG__t4-4" value="" style="rounded=0;whiteSpace=wrap;html=1;fillColor=#dae8fc;strokeColor=#6c8ebf;" parent="1" vertex="1">
          <mxGeometry x="80" y="120" width="20" height="40" as="geometry" />
        </mxCell>
        <mxCell id="keDTnLgS_OwcRACG__t4-5" value="" style="rounded=0;whiteSpace=wrap;html=1;fillColor=#d5e8d4;strokeColor=#82b366;" parent="1" vertex="1">
          <mxGeometry x="100" y="120" width="20" height="40" as="geometry" />
        </mxCell>
        <mxCell id="keDTnLgS_OwcRACG__t4-6" value="" style="rounded=0;whiteSpace=wrap;html=1;fillColor=#ffe6cc;strokeColor=#d79b00;" parent="1" vertex="1">
          <mxGeometry x="120" y="120" width="20" height="40" as="geometry" />
        </mxCell>
        <mxCell id="keDTnLgS_OwcRACG__t4-8" value="" style="rounded=0;whiteSpace=wrap;html=1;fillColor=#f8cecc;strokeColor=#b85450;" parent="1" vertex="1">
          <mxGeometry x="180" y="120" width="20" height="40" as="geometry" />
        </mxCell>
        <mxCell id="keDTnLgS_OwcRACG__t4-10" value="" style="rounded=0;whiteSpace=wrap;html=1;fillColor=#dae8fc;strokeColor=#6c8ebf;" parent="1" vertex="1">
          <mxGeometry x="280" y="120" width="20" height="40" as="geometry" />
        </mxCell>
        <mxCell id="keDTnLgS_OwcRACG__t4-11" value="" style="rounded=0;whiteSpace=wrap;html=1;fillColor=#d5e8d4;strokeColor=#82b366;" parent="1" vertex="1">
          <mxGeometry x="300" y="120" width="20" height="40" as="geometry" />
        </mxCell>
        <mxCell id="keDTnLgS_OwcRACG__t4-12" value="" style="rounded=0;whiteSpace=wrap;html=1;fillColor=#ffe6cc;strokeColor=#d79b00;" parent="1" vertex="1">
          <mxGeometry x="320" y="120" width="20" height="40" as="geometry" />
        </mxCell>
        <mxCell id="keDTnLgS_OwcRACG__t4-13" value="" style="rounded=0;whiteSpace=wrap;html=1;fillColor=#f8cecc;strokeColor=#b85450;" parent="1" vertex="1">
          <mxGeometry x="380" y="120" width="20" height="40" as="geometry" />
        </mxCell>
        <mxCell id="keDTnLgS_OwcRACG__t4-15" value="" style="rounded=0;whiteSpace=wrap;html=1;fillColor=#dae8fc;strokeColor=#6c8ebf;" parent="1" vertex="1">
          <mxGeometry x="520" y="120" width="20" height="40" as="geometry" />
        </mxCell>
        <mxCell id="keDTnLgS_OwcRACG__t4-16" value="" style="rounded=0;whiteSpace=wrap;html=1;fillColor=#d5e8d4;strokeColor=#82b366;" parent="1" vertex="1">
          <mxGeometry x="540" y="120" width="20" height="40" as="geometry" />
        </mxCell>
        <mxCell id="keDTnLgS_OwcRACG__t4-17" value="" style="rounded=0;whiteSpace=wrap;html=1;fillColor=#ffe6cc;strokeColor=#d79b00;" parent="1" vertex="1">
          <mxGeometry x="560" y="120" width="20" height="40" as="geometry" />
        </mxCell>
        <mxCell id="keDTnLgS_OwcRACG__t4-18" value="" style="rounded=0;whiteSpace=wrap;html=1;fillColor=#f8cecc;strokeColor=#b85450;" parent="1" vertex="1">
          <mxGeometry x="620" y="120" width="20" height="40" as="geometry" />
        </mxCell>
        <mxCell id="keDTnLgS_OwcRACG__t4-7" value="device 1" style="rounded=0;whiteSpace=wrap;html=1;fillColor=none;" parent="1" vertex="1">
          <mxGeometry x="80" y="120" width="120" height="40" as="geometry" />
        </mxCell>
        <mxCell id="keDTnLgS_OwcRACG__t4-9" value="device2" style="rounded=0;whiteSpace=wrap;html=1;fillColor=none;" parent="1" vertex="1">
          <mxGeometry x="280" y="120" width="120" height="40" as="geometry" />
        </mxCell>
        <mxCell id="keDTnLgS_OwcRACG__t4-14" value="device n" style="rounded=0;whiteSpace=wrap;html=1;fillColor=none;" parent="1" vertex="1">
          <mxGeometry x="520" y="120" width="120" height="40" as="geometry" />
        </mxCell>
        <mxCell id="V1a2tWrJ-6fX1USO5qKv-2" value="" style="rounded=0;whiteSpace=wrap;html=1;fillColor=#dae8fc;strokeColor=#6c8ebf;" vertex="1" parent="1">
          <mxGeometry x="80" y="240" width="20" height="40" as="geometry" />
        </mxCell>
        <mxCell id="V1a2tWrJ-6fX1USO5qKv-3" value="" style="rounded=0;whiteSpace=wrap;html=1;fillColor=#dae8fc;strokeColor=#6c8ebf;" vertex="1" parent="1">
          <mxGeometry x="100" y="240" width="20" height="40" as="geometry" />
        </mxCell>
        <mxCell id="V1a2tWrJ-6fX1USO5qKv-4" value="" style="rounded=0;whiteSpace=wrap;html=1;fillColor=#dae8fc;strokeColor=#6c8ebf;" vertex="1" parent="1">
          <mxGeometry x="120" y="240" width="20" height="40" as="geometry" />
        </mxCell>
        <mxCell id="V1a2tWrJ-6fX1USO5qKv-5" value="" style="rounded=0;whiteSpace=wrap;html=1;fillColor=#dae8fc;strokeColor=#6c8ebf;" vertex="1" parent="1">
          <mxGeometry x="180" y="240" width="20" height="40" as="geometry" />
        </mxCell>
        <mxCell id="V1a2tWrJ-6fX1USO5qKv-6" value="" style="rounded=0;whiteSpace=wrap;html=1;fillColor=#d5e8d4;strokeColor=#82b366;" vertex="1" parent="1">
          <mxGeometry x="280" y="240" width="20" height="40" as="geometry" />
        </mxCell>
        <mxCell id="V1a2tWrJ-6fX1USO5qKv-7" value="" style="rounded=0;whiteSpace=wrap;html=1;fillColor=#d5e8d4;strokeColor=#82b366;" vertex="1" parent="1">
          <mxGeometry x="300" y="240" width="20" height="40" as="geometry" />
        </mxCell>
        <mxCell id="V1a2tWrJ-6fX1USO5qKv-8" value="" style="rounded=0;whiteSpace=wrap;html=1;fillColor=#d5e8d4;strokeColor=#82b366;" vertex="1" parent="1">
          <mxGeometry x="320" y="240" width="20" height="40" as="geometry" />
        </mxCell>
        <mxCell id="V1a2tWrJ-6fX1USO5qKv-9" value="" style="rounded=0;whiteSpace=wrap;html=1;fillColor=#d5e8d4;strokeColor=#82b366;" vertex="1" parent="1">
          <mxGeometry x="380" y="240" width="20" height="40" as="geometry" />
        </mxCell>
        <mxCell id="V1a2tWrJ-6fX1USO5qKv-10" value="" style="rounded=0;whiteSpace=wrap;html=1;fillColor=#f8cecc;strokeColor=#b85450;" vertex="1" parent="1">
          <mxGeometry x="520" y="240" width="20" height="40" as="geometry" />
        </mxCell>
        <mxCell id="V1a2tWrJ-6fX1USO5qKv-11" value="" style="rounded=0;whiteSpace=wrap;html=1;fillColor=#f8cecc;strokeColor=#b85450;" vertex="1" parent="1">
          <mxGeometry x="540" y="240" width="20" height="40" as="geometry" />
        </mxCell>
        <mxCell id="V1a2tWrJ-6fX1USO5qKv-12" value="" style="rounded=0;whiteSpace=wrap;html=1;fillColor=#f8cecc;strokeColor=#b85450;" vertex="1" parent="1">
          <mxGeometry x="560" y="240" width="20" height="40" as="geometry" />
        </mxCell>
        <mxCell id="V1a2tWrJ-6fX1USO5qKv-13" value="" style="rounded=0;whiteSpace=wrap;html=1;fillColor=#f8cecc;strokeColor=#b85450;" vertex="1" parent="1">
          <mxGeometry x="620" y="240" width="20" height="40" as="geometry" />
        </mxCell>
        <mxCell id="V1a2tWrJ-6fX1USO5qKv-14" value="device 1" style="rounded=0;whiteSpace=wrap;html=1;fillColor=none;" vertex="1" parent="1">
          <mxGeometry x="80" y="240" width="120" height="40" as="geometry" />
        </mxCell>
        <mxCell id="V1a2tWrJ-6fX1USO5qKv-15" value="device2" style="rounded=0;whiteSpace=wrap;html=1;fillColor=none;" vertex="1" parent="1">
          <mxGeometry x="280" y="240" width="120" height="40" as="geometry" />
        </mxCell>
        <mxCell id="V1a2tWrJ-6fX1USO5qKv-16" value="device n" style="rounded=0;whiteSpace=wrap;html=1;fillColor=none;" vertex="1" parent="1">
          <mxGeometry x="520" y="240" width="120" height="40" as="geometry" />
        </mxCell>
        <mxCell id="V1a2tWrJ-6fX1USO5qKv-17" value="" style="endArrow=none;dashed=1;html=1;dashPattern=1 3;strokeWidth=2;rounded=0;" edge="1" parent="1">
          <mxGeometry width="50" height="50" relative="1" as="geometry">
            <mxPoint x="40" y="200" as="sourcePoint" />
            <mxPoint x="680" y="200" as="targetPoint" />
          </mxGeometry>
        </mxCell>
        <mxCell id="V1a2tWrJ-6fX1USO5qKv-18" value="" style="endArrow=classic;html=1;rounded=0;exitX=0.5;exitY=1;exitDx=0;exitDy=0;" edge="1" parent="1" source="keDTnLgS_OwcRACG__t4-7">
          <mxGeometry width="50" height="50" relative="1" as="geometry">
            <mxPoint x="380" y="330" as="sourcePoint" />
            <mxPoint x="340" y="240" as="targetPoint" />
          </mxGeometry>
        </mxCell>
        <mxCell id="V1a2tWrJ-6fX1USO5qKv-19" value="" style="endArrow=classic;html=1;rounded=0;exitX=0.5;exitY=1;exitDx=0;exitDy=0;entryX=0.5;entryY=0;entryDx=0;entryDy=0;" edge="1" parent="1" source="keDTnLgS_OwcRACG__t4-7" target="V1a2tWrJ-6fX1USO5qKv-16">
          <mxGeometry width="50" height="50" relative="1" as="geometry">
            <mxPoint x="150" y="170" as="sourcePoint" />
            <mxPoint x="350" y="250" as="targetPoint" />
          </mxGeometry>
        </mxCell>
        <mxCell id="V1a2tWrJ-6fX1USO5qKv-20" value="" style="endArrow=classic;html=1;rounded=0;entryX=0.5;entryY=0;entryDx=0;entryDy=0;exitX=0.5;exitY=1;exitDx=0;exitDy=0;" edge="1" parent="1" source="keDTnLgS_OwcRACG__t4-9" target="V1a2tWrJ-6fX1USO5qKv-14">
          <mxGeometry width="50" height="50" relative="1" as="geometry">
            <mxPoint x="150" y="170" as="sourcePoint" />
            <mxPoint x="350" y="250" as="targetPoint" />
          </mxGeometry>
        </mxCell>
        <mxCell id="V1a2tWrJ-6fX1USO5qKv-21" value="" style="endArrow=classic;html=1;rounded=0;entryX=0.5;entryY=0;entryDx=0;entryDy=0;exitX=0.5;exitY=1;exitDx=0;exitDy=0;" edge="1" parent="1" source="keDTnLgS_OwcRACG__t4-14" target="V1a2tWrJ-6fX1USO5qKv-14">
          <mxGeometry width="50" height="50" relative="1" as="geometry">
            <mxPoint x="350" y="170" as="sourcePoint" />
            <mxPoint x="150" y="250" as="targetPoint" />
          </mxGeometry>
        </mxCell>
        <mxCell id="V1a2tWrJ-6fX1USO5qKv-22" value="" style="endArrow=classic;html=1;rounded=0;entryX=0.5;entryY=0;entryDx=0;entryDy=0;exitX=0.5;exitY=1;exitDx=0;exitDy=0;" edge="1" parent="1" source="keDTnLgS_OwcRACG__t4-9" target="V1a2tWrJ-6fX1USO5qKv-16">
          <mxGeometry width="50" height="50" relative="1" as="geometry">
            <mxPoint x="360" y="180" as="sourcePoint" />
            <mxPoint x="160" y="260" as="targetPoint" />
          </mxGeometry>
        </mxCell>
        <mxCell id="V1a2tWrJ-6fX1USO5qKv-23" value="" style="endArrow=classic;html=1;rounded=0;entryX=0.5;entryY=0;entryDx=0;entryDy=0;exitX=0.5;exitY=1;exitDx=0;exitDy=0;" edge="1" parent="1" source="keDTnLgS_OwcRACG__t4-14" target="V1a2tWrJ-6fX1USO5qKv-15">
          <mxGeometry width="50" height="50" relative="1" as="geometry">
            <mxPoint x="370" y="190" as="sourcePoint" />
            <mxPoint x="170" y="270" as="targetPoint" />
          </mxGeometry>
        </mxCell>
      </root>
    </mxGraphModel>
  </diagram>
</mxfile>
